<svg width="45" height="30" viewBox="0 0 45 30" fill="none" xmlns="http://www.w3.org/2000/svg">
<g clip-path="url(#clip0_6803_385)">
<path d="M44.5723 19.3188V18.8561H44.4373L44.2798 19.1646L44.1223 18.8561H43.9873V19.3188H44.0773V18.9718L44.2348 19.2802H44.3473L44.5048 18.9718V19.3188H44.5723ZM43.6723 19.3188V18.9332H43.8523V18.8561H43.4023V18.9332H43.5823V19.3188H43.6723Z" fill="#00A2E5"/>
<path d="M28.5748 21.3046H16.4023V2.56421H28.5748V21.3046Z" fill="#7375CF"/>
<path d="M17.19 11.9345C17.19 8.13625 19.26 4.74294 22.5 2.56427C20.1375 0.964017 17.145 0.0192871 13.905 0.0192871C6.2325 0.0192871 0 5.3599 0 11.9345C0 18.509 6.2325 23.8496 13.905 23.8496C17.145 23.8496 20.1375 22.9049 22.5 21.3046C19.26 19.126 17.19 15.7327 17.19 11.9345Z" fill="#EB001B"/>
<path d="M45 11.9345C45 18.509 38.7675 23.8496 31.095 23.8496C27.855 23.8496 24.8625 22.9049 22.5 21.3046C25.74 19.126 27.81 15.7327 27.81 11.9345C27.81 8.13625 25.74 4.74294 22.5 2.56427C24.8625 0.964017 27.855 0.0192871 31.095 0.0192871C38.7675 0.0192871 45 5.35991 45 11.9345Z" fill="#00A2E5"/>
<path d="M32.67 26.6067C32.8275 26.6067 33.075 26.626 33.2325 26.6839L32.985 27.3394C32.805 27.2815 32.6475 27.2623 32.49 27.2623C31.9725 27.2623 31.7025 27.5515 31.7025 28.072V29.8458H30.8925V26.6839H31.68V27.0695C31.905 26.7803 32.22 26.6067 32.67 26.6067ZM29.7 27.3008H28.395V28.7276C28.395 29.036 28.53 29.2481 28.935 29.2481C29.1375 29.2481 29.4075 29.1903 29.655 29.0746L29.88 29.6723C29.6325 29.8265 29.2275 29.9229 28.8675 29.9229C27.9225 29.9229 27.585 29.4795 27.585 28.7468V27.3008H26.8425V26.6646H27.585V25.7006H28.395V26.6646H29.7V27.3008ZM19.4175 27.9756C19.5075 27.5129 19.8225 27.2044 20.4075 27.2044C20.925 27.2044 21.2625 27.4743 21.3525 27.9756H19.4175ZM22.185 28.2648C22.185 27.2815 21.465 26.6067 20.43 26.6067C19.35 26.6067 18.585 27.2815 18.585 28.2648C18.585 29.2674 19.3725 29.9229 20.475 29.9229C21.0375 29.9229 21.5325 29.8072 21.9825 29.4795L21.5775 28.9782C21.2625 29.1903 20.88 29.306 20.4975 29.306C19.98 29.306 19.5075 29.0939 19.395 28.5348H22.14C22.1625 28.4384 22.185 28.3612 22.185 28.2648ZM25.7175 27.4936C25.4925 27.3779 25.0425 27.2237 24.57 27.2237C24.12 27.2237 23.8725 27.3587 23.8725 27.59C23.8725 27.8021 24.1425 27.8599 24.5025 27.8985L24.885 27.9371C25.695 28.0335 26.1675 28.3227 26.1675 28.8818C26.1675 29.4795 25.56 29.9229 24.48 29.9229C23.8725 29.9229 23.31 29.788 22.8825 29.518L23.265 28.9782C23.535 29.1517 23.94 29.306 24.5025 29.306C25.0425 29.306 25.335 29.171 25.335 28.9204C25.335 28.7468 25.1325 28.6504 24.6825 28.5926L24.3 28.554C23.4675 28.4576 23.0175 28.1299 23.0175 27.6286C23.0175 26.9923 23.625 26.6067 24.5475 26.6067C25.1325 26.6067 25.6725 26.7224 26.055 26.9345L25.7175 27.4936ZM35.6175 27.243C35.46 27.243 35.3025 27.2623 35.1675 27.3201C35.0325 27.3779 34.8975 27.4358 34.8075 27.5322C34.7175 27.6286 34.6275 27.725 34.56 27.8599C34.4925 27.9756 34.47 28.1299 34.47 28.2648C34.47 28.4191 34.4925 28.554 34.56 28.6697C34.6275 28.7854 34.695 28.9011 34.8075 28.9975C34.92 29.0939 35.0325 29.1517 35.1675 29.2096C35.3025 29.2674 35.46 29.2867 35.6175 29.2867C35.775 29.2867 35.9325 29.2674 36.0675 29.2096C36.2025 29.1517 36.3375 29.0939 36.4275 28.9975C36.54 28.9011 36.6075 28.8047 36.675 28.6697C36.7425 28.554 36.765 28.3998 36.765 28.2648C36.765 28.1106 36.7425 27.9756 36.675 27.8599C36.6075 27.7443 36.54 27.6286 36.4275 27.5322C36.315 27.4358 36.2025 27.3779 36.0675 27.3201C35.9325 27.2815 35.775 27.243 35.6175 27.243ZM35.6175 26.6067C35.91 26.6067 36.18 26.6453 36.405 26.7417C36.6525 26.8188 36.855 26.9345 37.035 27.0887C37.215 27.243 37.35 27.4165 37.4625 27.6093C37.5525 27.8214 37.62 28.0335 37.62 28.2648C37.62 28.4962 37.575 28.7276 37.4625 28.9204C37.3725 29.1324 37.215 29.306 37.035 29.4409C36.855 29.5952 36.6525 29.7108 36.405 29.788C36.1575 29.8651 35.8875 29.9229 35.6175 29.9229C35.325 29.9229 35.055 29.8844 34.83 29.788C34.5825 29.7108 34.38 29.5952 34.2 29.4409C34.02 29.2867 33.885 29.1132 33.7725 28.9204C33.6825 28.7083 33.615 28.4962 33.615 28.2648C33.615 28.0335 33.66 27.8021 33.7725 27.6093C33.8625 27.3972 34.02 27.2237 34.2 27.0887C34.38 26.9345 34.5825 26.8188 34.83 26.7417C35.055 26.6453 35.325 26.6067 35.6175 26.6067ZM14.7375 28.2648C14.7375 27.7057 15.165 27.243 15.8625 27.243C16.5375 27.243 16.965 27.6864 16.965 28.2648C16.965 28.8432 16.515 29.2674 15.8625 29.2674C15.165 29.2674 14.7375 28.824 14.7375 28.2648ZM17.73 28.2648V26.6839H16.92V27.0695C16.6725 26.7803 16.29 26.6067 15.75 26.6067C14.715 26.6067 13.905 27.3008 13.905 28.2648C13.905 29.2288 14.715 29.9229 15.75 29.9229C16.2675 29.9229 16.65 29.7494 16.92 29.4602V29.8458H17.73V28.2648ZM13.2075 29.8458V27.8599C13.2075 27.108 12.645 26.6067 11.745 26.6067C11.2725 26.6067 10.7775 26.7224 10.44 27.1659C10.1925 26.8188 9.78746 26.6067 9.22496 26.6067C8.84246 26.6067 8.43746 26.7031 8.14496 27.0695V26.6839H7.33496V29.8458H8.14496V28.0913C8.14496 27.5515 8.50496 27.243 9.04496 27.243C9.58496 27.243 9.85496 27.5322 9.85496 28.072V29.8265H10.665V28.072C10.665 27.5322 11.0475 27.2237 11.565 27.2237C12.105 27.2237 12.375 27.5129 12.375 28.0527V29.8072H13.2075V29.8458ZM38.475 29.5952V29.6723H38.565C38.5875 29.6723 38.61 29.6723 38.61 29.653C38.6325 29.653 38.6325 29.6337 38.6325 29.6144C38.6325 29.5952 38.6325 29.5952 38.61 29.5952C38.61 29.5952 38.5875 29.5759 38.565 29.5759H38.475V29.5952ZM38.565 29.5566C38.61 29.5566 38.6325 29.5566 38.655 29.5759C38.6775 29.5952 38.7 29.6144 38.7 29.653C38.7 29.6723 38.7 29.6916 38.6775 29.7108C38.655 29.7301 38.6325 29.7301 38.5875 29.7301L38.7 29.8458H38.61L38.4975 29.7301H38.475V29.8458H38.4075V29.5566H38.565ZM38.5425 29.9422C38.5875 29.9422 38.61 29.9422 38.655 29.9229C38.7 29.9036 38.7225 29.8844 38.745 29.8651C38.7675 29.8458 38.79 29.8265 38.8125 29.788C38.835 29.7494 38.835 29.7301 38.835 29.6916C38.835 29.653 38.835 29.6337 38.8125 29.5952C38.79 29.5566 38.7675 29.5373 38.745 29.518C38.7225 29.4988 38.7 29.4795 38.655 29.4602C38.6325 29.4409 38.5875 29.4409 38.5425 29.4409C38.4975 29.4409 38.475 29.4409 38.43 29.4602C38.385 29.4795 38.3625 29.4988 38.34 29.518C38.3175 29.5373 38.295 29.5759 38.2725 29.5952C38.25 29.6337 38.25 29.653 38.25 29.6916C38.25 29.7301 38.25 29.7494 38.2725 29.788C38.295 29.8265 38.3175 29.8458 38.34 29.8651C38.3625 29.8844 38.4075 29.9036 38.43 29.9229C38.475 29.9422 38.4975 29.9422 38.5425 29.9422ZM38.5425 29.3831C38.5875 29.3831 38.6325 29.3831 38.6775 29.4024C38.7225 29.4216 38.7675 29.4409 38.79 29.4602C38.8125 29.4795 38.8575 29.518 38.88 29.5566C38.9025 29.5952 38.9025 29.6337 38.9025 29.6723C38.9025 29.7108 38.9025 29.7494 38.88 29.788C38.8575 29.8265 38.835 29.8651 38.79 29.8844C38.745 29.9036 38.7225 29.9422 38.6775 29.9615C38.6325 29.9808 38.5875 29.9808 38.5425 29.9808C38.4975 29.9808 38.43 29.9808 38.385 29.9615C38.34 29.9422 38.295 29.9229 38.2725 29.8844C38.25 29.8651 38.205 29.8265 38.1825 29.788C38.16 29.7494 38.16 29.7108 38.16 29.6723C38.16 29.6337 38.16 29.5952 38.1825 29.5566C38.205 29.518 38.2275 29.4795 38.2725 29.4602C38.295 29.4409 38.34 29.4024 38.385 29.4024C38.43 29.3831 38.4975 29.3831 38.5425 29.3831Z" fill="black"/>
</g>
<defs>
<clipPath id="clip0_6803_385">
<rect width="45" height="30" fill="white"/>
</clipPath>
</defs>
</svg>




